<svg width="24" height="24" viewBox="0 0 24 24" fill="none" xmlns="http://www.w3.org/2000/svg">
<g clip-path="url(#clip0_14_30)">
<rect width="24" height="24" fill="white"/>
<path d="M13.6667 3.66669V8.66669C13.6666 8.94626 13.7368 9.22136 13.8709 9.46669L18.4626 17.8667C18.6014 18.1205 18.6719 18.4062 18.6669 18.6955C18.6619 18.9848 18.5816 19.2678 18.4341 19.5167C18.2865 19.7656 18.0767 19.9718 17.8252 20.115C17.5738 20.2582 17.2894 20.3334 17.0001 20.3334H7.00006C6.71071 20.3334 6.42632 20.2582 6.17489 20.115C5.92345 19.9718 5.71362 19.7656 5.56605 19.5167C5.41848 19.2678 5.33825 18.9848 5.33326 18.6955C5.32826 18.4062 5.39867 18.1205 5.53756 17.8667L10.1292 9.46669C10.2633 9.22136 10.3335 8.94626 10.3334 8.66669V3.66669" stroke="black" stroke-width="2" stroke-linecap="round" stroke-linejoin="round"/>
<path d="M7 15.3333H16.245" stroke="black" stroke-width="2" stroke-linecap="round" stroke-linejoin="round"/>
<path d="M9.08325 3.66669H14.9166" stroke="black" stroke-width="2" stroke-linecap="round" stroke-linejoin="round"/>
<path d="M22.1118 5.6311C17.9143 2.9143 17.9143 2.9143 15.1975 7.1118C17.9143 2.9143 17.9143 2.9143 13.7168 0.197498C17.9143 2.9143 17.9143 2.9143 20.6311 -1.2832C17.9143 2.9143 17.9143 2.9143 22.1118 5.6311Z" fill="black"/>
<path d="M20.0881 22.5415C21.8696 17.8697 21.8696 17.8697 17.1978 16.0881C21.8696 17.8697 21.8696 17.8697 23.6511 13.1978C21.8696 17.8697 21.8696 17.8697 26.5415 19.6512C21.8696 17.8697 21.8696 17.8697 20.0881 22.5415Z" fill="black"/>
<path d="M7.45984 11.3019C3.15795 13.1579 3.15795 13.1579 5.014 17.4598C3.15795 13.1579 3.15795 13.1579 -1.14394 15.014C3.15795 13.1579 3.15795 13.1579 1.30189 8.85604C3.15795 13.1579 3.15795 13.1579 7.45984 11.3019Z" fill="black"/>
</g>
<defs>
<clipPath id="clip0_14_30">
<rect width="24" height="24" fill="white"/>
</clipPath>
</defs>
</svg>
